<?xml version="1.0" encoding="UTF-8" standalone="no"?><!DOCTYPE svg PUBLIC "-//W3C//DTD SVG 1.1//EN" "http://www.w3.org/Graphics/SVG/1.1/DTD/svg11.dtd"><svg width="100%" height="100%" viewBox="0 0 1642 334" version="1.1" xmlns="http://www.w3.org/2000/svg" xmlns:xlink="http://www.w3.org/1999/xlink" xml:space="preserve" xmlns:serif="http://www.serif.com/" style="fill-rule:evenodd;clip-rule:evenodd;stroke-linejoin:round;stroke-miterlimit:2;"><g transform="matrix(4.166667,0,0,4.166667,0,0)"><g transform="matrix(1,0,0,1,-79.738647,0)"><clipPath id="_clip1"><rect x="79.739" y="0" width="167.013" height="79.4"/></clipPath><g clip-path="url(#_clip1)"><path d="M262,0L330.5,0L330.5,12.7L303.3,12.7L303.3,79.3L289.7,79.3L289.7,12.7L262,12.7L262,0ZM149,0L149,12.7L94,12.7L94,33.1L138.3,33.1L138.3,45.7L94,45.7L94,66.7L149,66.7L149,79.3L80.5,79.3L80.5,0L149.2,0L149,0ZM183.3,0L165.5,0L229.3,79.4L247.2,79.4L215.2,39.7L247.2,0.1L229.3,0.1L206.3,28.7L183.3,0.1L183.3,0ZM201.6,56.7L192.6,45.7L165.5,79.4L183.3,79.4L201.6,56.7Z" style="fill:rgb(99,102,241);fill-rule:nonzero;"/></g></g><g transform="matrix(3.560691,0,0,3.560691,-541.737071,-72.844245)"><g transform="matrix(17.412351,0,0,17.412351,262.915523,43.826672)"></g><text x="201.088px" y="43.827px" style="font-family:'SimplifiedArabic', 'Simplified Arabic', serif;font-size:17.412px;fill:rgb(34,34,34);">PENSLY</text></g></g></svg>